<?xml version="1.0" encoding="utf-8"?>
<!-- Generator: Adobe Illustrator 16.0.0, SVG Export Plug-In . SVG Version: 6.00 Build 0)  -->
<!DOCTYPE svg PUBLIC "-//W3C//DTD SVG 1.1//EN" "http://www.w3.org/Graphics/SVG/1.1/DTD/svg11.dtd">
<svg version="1.1" id="Layer_1" xmlns="http://www.w3.org/2000/svg" xmlns:xlink="http://www.w3.org/1999/xlink" x="0px" y="0px"
	 width="422.671px" height="123.977px" viewBox="0 0 422.671 123.977" enable-background="new 0 0 422.671 123.977"
	 xml:space="preserve">
<g>
	<g>
		<g>
			<path fill="none" stroke="#818181" stroke-linecap="round" stroke-linejoin="round" stroke-miterlimit="2.6131" d="M1.095,27.028
				h14.52v39.667h25.372v12.725H1.095V27.028z"/>
			<path fill="none" stroke="#818181" stroke-linecap="round" stroke-linejoin="round" stroke-miterlimit="2.6131" d="
				M46.377,24.782h14.819V35.26H46.377V24.782z M46.677,38.927h14.221v40.491H46.677V38.927z"/>
			<path fill="none" stroke="#818181" stroke-linecap="round" stroke-linejoin="round" stroke-miterlimit="2.6131" d="
				M71.376,50.305h-4.715V39.152h4.715v-0.896c0-4.641,1.048-8.084,3.443-10.479c2.47-2.47,5.763-3.519,10.553-3.519
				c4.341,0,7.036,0.449,9.281,1.122v10.03c-1.646-0.522-3.293-0.823-5.314-0.823c-2.619,0-4.042,1.198-4.042,3.816v0.974h9.281
				v10.929h-9.056v29.113H71.376V50.305z"/>
		</g>
		<g>
			<path fill="none" stroke="#818181" stroke-linecap="round" stroke-linejoin="round" stroke-miterlimit="2.6131" d="M96.676,59.36
				v-0.148c0-11.825,8.458-21.181,20.432-21.181c13.996,0,20.433,10.253,20.433,22.152c0,0.897,0,1.945-0.074,2.919h-27.094
				c1.122,4.416,4.341,6.661,8.757,6.661c3.368,0,6.063-1.271,8.981-4.116l7.858,6.513c-3.892,4.938-9.505,8.231-17.589,8.231
				C105.657,80.392,96.676,71.935,96.676,59.36z M124.218,55.843c-0.523-4.489-3.144-7.335-7.035-7.335
				c-3.742,0-6.287,2.919-7.035,7.335H124.218z"/>
			<path fill="none" stroke="#818181" stroke-linecap="round" stroke-linejoin="round" stroke-miterlimit="2.6131" d="
				M183.273,26.653h13.996l22.303,52.767h-15.567l-3.816-9.354H179.98l-3.742,9.354h-15.269L183.273,26.653z M195.997,58.762
				l-5.838-14.895l-5.913,14.895H195.997z"/>
		</g>
		<g>
			<path fill="none" stroke="#818181" stroke-linecap="round" stroke-linejoin="round" stroke-miterlimit="2.6131" d="
				M223.318,66.844V50.379h-4.79V38.927h4.79V28.675h14.221v10.253h9.43v11.451h-9.43v13.697c0,2.844,1.271,4.041,3.894,4.041
				c1.871,0,3.667-0.523,5.389-1.348v11.15c-2.545,1.422-5.911,2.32-9.88,2.32C228.408,80.242,223.318,76.5,223.318,66.844z"/>
		</g>
	</g>
	
	
</g>
<g>
	<path fill="#F04E37" d="M268.202,28.308h19.669c4.283,0,7.492,1.343,9.625,4.03s3.2,6.51,3.2,11.469
		c0,5.097-1.162,9.081-3.487,11.951s-5.873,4.305-10.645,4.305h-6.478v18.735h-11.885V28.308z M280.086,49.834h2.899
		c2.281,0,3.883-0.523,4.806-1.567c0.923-1.045,1.385-2.382,1.385-4.013c0-1.584-0.4-2.928-1.201-4.029
		c-0.802-1.102-2.308-1.653-4.52-1.653h-3.369V49.834z"/>
	<path fill="#F04E37" d="M306.834,28.308h19.669c4.283,0,7.492,1.343,9.625,4.03s3.2,6.51,3.2,11.469
		c0,5.097-1.162,9.081-3.487,11.951s-5.873,4.305-10.645,4.305h-6.478v18.735h-11.885V28.308z M318.719,49.834h2.899
		c2.281,0,3.883-0.523,4.806-1.567c0.923-1.045,1.385-2.382,1.385-4.013c0-1.584-0.4-2.928-1.201-4.029
		c-0.802-1.102-2.308-1.653-4.52-1.653h-3.369V49.834z"/>
	<path fill="#F04E37" d="M343.456,62.095l11.258-0.931c0.244,2.411,0.74,4.248,1.489,5.511c1.219,2.045,2.96,3.066,5.224,3.066
		c1.689,0,2.991-0.522,3.905-1.568c0.914-1.044,1.372-2.255,1.372-3.633c0-1.309-0.436-2.479-1.307-3.514
		c-0.871-1.032-2.891-2.009-6.06-2.927c-5.189-1.538-8.891-3.582-11.102-6.131c-2.229-2.549-3.344-5.797-3.344-9.746
		c0-2.595,0.57-5.047,1.711-7.353c1.141-2.309,2.855-4.122,5.146-5.442c2.29-1.321,5.429-1.981,9.417-1.981
		c4.894,0,8.624,1.2,11.192,3.599s4.097,6.217,4.585,11.452l-11.154,0.86c-0.296-2.272-0.918-3.926-1.867-4.959
		c-0.949-1.033-2.26-1.55-3.932-1.55c-1.375,0-2.412,0.384-3.108,1.153c-0.696,0.77-1.045,1.706-1.045,2.808
		c0,0.804,0.288,1.526,0.862,2.169c0.558,0.667,1.881,1.286,3.971,1.86c5.172,1.469,8.876,2.956,11.114,4.46
		c2.237,1.504,3.866,3.37,4.885,5.597s1.528,4.719,1.528,7.474c0,3.238-0.68,6.223-2.038,8.954
		c-1.358,2.732-3.256,4.806-5.694,6.217c-2.438,1.413-5.512,2.119-9.221,2.119c-6.513,0-11.022-1.653-13.53-4.96
		C345.206,71.395,343.787,67.192,343.456,62.095z"/>
	<path fill="#F04E37" d="M409.071,28.308h11.807V58.39c0,2.983-0.353,5.8-1.058,8.449c-0.705,2.65-1.812,4.969-3.317,6.953
		s-3.087,3.379-4.741,4.182c-2.298,1.123-5.059,1.687-8.28,1.687c-1.863,0-3.896-0.172-6.099-0.518
		c-2.203-0.345-4.045-1.025-5.524-2.047c-1.48-1.021-2.834-2.473-4.063-4.354c-1.228-1.88-2.067-3.818-2.521-5.816
		c-0.731-3.211-1.097-6.057-1.097-8.535V28.308h11.807v30.798c0,2.754,0.578,4.904,1.737,6.453c1.157,1.549,2.764,2.321,4.819,2.321
		c2.037,0,3.635-0.762,4.793-2.288c1.157-1.525,1.736-3.688,1.736-6.486V28.308z"/>
</g>
</svg>
